<?xml version="1.0" encoding="UTF-8"?>
<svg xmlns="http://www.w3.org/2000/svg" xmlns:xlink="http://www.w3.org/1999/xlink" width="650pt" height="580pt" viewBox="0 0 650 580" version="1.1">
<g id="surface1">
<path style=" stroke:none;fill-rule:evenodd;fill:rgb(20.845032%,27.865601%,31.394958%);fill-opacity:1;" d="M 160.105469 412.859375 L 160.105469 382.308594 C 160.105469 378.296875 162.613281 375.070312 166.769531 375.070312 L 167.921875 375.070312 C 172.074219 375.070312 174.574219 378.300781 174.574219 382.308594 L 174.574219 446.628906 C 174.574219 462.3125 166.824219 474.792969 153.320312 482.742188 C 147.0625 486.429688 140.144531 488.316406 132.886719 488.316406 L 130.015625 488.316406 C 114.328125 488.316406 101.863281 480.5625 93.898438 467.066406 C 90.203125 460.804688 88.328125 453.894531 88.328125 446.628906 L 88.328125 443.761719 C 88.328125 428.070312 96.082031 415.601562 109.574219 407.636719 C 115.839844 403.9375 122.746094 402.0625 130.015625 402.0625 L 132.886719 402.0625 C 143.503906 402.0625 152.511719 406.175781 160.105469 412.859375 Z M 102.796875 445.191406 C 102.796875 456.523438 108.285156 465.039062 118.214844 470.472656 C 122.230469 472.671875 126.589844 473.851562 131.167969 473.851562 C 142.289062 473.851562 150.535156 468.605469 156.226562 459.179688 C 158.871094 454.796875 160.105469 450 160.105469 444.898438 C 160.105469 435.078125 155.453125 427.414062 147.539062 421.722656 C 142.742188 418.269531 137.339844 416.539062 131.449219 416.539062 C 119.328125 416.539062 110.605469 422.660156 105.367188 433.539062 C 103.601562 437.21875 102.796875 441.125 102.796875 445.191406 Z M 224.769531 402.0625 L 226.773438 402.0625 C 243.535156 402.0625 256.285156 410.191406 264.363281 424.824219 C 267.597656 430.679688 269.324219 437.066406 269.324219 443.761719 L 269.324219 446.628906 C 269.324219 462.3125 261.589844 474.8125 248.066406 482.746094 C 241.804688 486.417969 234.890625 488.316406 227.632812 488.316406 L 224.769531 488.316406 C 209.078125 488.316406 196.613281 480.5625 188.652344 467.066406 C 184.957031 460.804688 183.074219 453.894531 183.074219 446.628906 L 183.074219 443.761719 C 183.074219 428.070312 190.859375 415.640625 204.316406 407.640625 C 210.574219 403.921875 217.496094 402.0625 224.769531 402.0625 Z M 197.542969 445.191406 C 197.542969 456.191406 202.941406 464.28125 212.230469 469.96875 C 216.59375 472.640625 221.394531 473.851562 226.492188 473.851562 C 237.359375 473.851562 245.390625 468.339844 250.980469 459.167969 C 253.648438 454.796875 254.855469 449.992188 254.855469 444.898438 C 254.855469 434.675781 249.929688 426.859375 241.507812 421.199219 C 236.894531 418.09375 231.757812 416.539062 226.199219 416.539062 C 214.078125 416.539062 205.355469 422.660156 200.121094 433.539062 C 198.351562 437.21875 197.542969 441.125 197.542969 445.191406 Z M 329.472656 417.695312 C 327.289062 416.671875 323.199219 416.332031 320.839844 416.242188 C 308.75 415.785156 300.003906 422.59375 294.871094 433.257812 C 293.101562 436.9375 292.292969 440.828125 292.292969 444.898438 C 292.292969 457.292969 298.800781 465.96875 309.859375 471.257812 C 313.902344 473.1875 319.117188 473.558594 323.535156 473.558594 C 327.421875 473.558594 332.90625 471.175781 336.355469 469.539062 L 336.953125 469.257812 L 339.628906 469.257812 L 339.921875 469.316406 C 343.214844 470 345.695312 472.085938 345.695312 475.628906 L 345.695312 477.058594 C 345.695312 485.867188 329.597656 487.886719 323.453125 488.3125 C 301.777344 489.8125 285.5625 477.90625 279.382812 457.230469 C 278.308594 453.640625 277.824219 450.074219 277.824219 446.332031 L 277.824219 443.46875 C 277.824219 427.777344 285.609375 415.351562 299.066406 407.355469 C 305.324219 403.640625 312.246094 401.773438 319.515625 401.773438 L 322.382812 401.773438 C 330.09375 401.773438 337.195312 403.964844 343.5625 408.3125 L 344.089844 408.675781 L 344.417969 409.222656 C 345.105469 410.359375 345.695312 411.679688 345.695312 413.035156 L 345.695312 414.46875 C 345.695312 418.160156 342.933594 420.144531 339.597656 420.789062 L 339.320312 420.839844 L 338.46875 420.839844 C 336.308594 420.839844 331.398438 418.601562 329.472656 417.695312 Z M 376.402344 427.492188 C 382.019531 421.863281 387.660156 416.246094 393.363281 410.714844 C 394.953125 409.171875 400.972656 402.636719 403.34375 402.636719 L 405.933594 402.636719 L 406.230469 402.695312 C 409.527344 403.382812 412.003906 405.472656 412.003906 409.019531 L 412.003906 410.449219 C 412.003906 412.867188 409.167969 415.679688 407.605469 417.335938 C 404.28125 420.859375 400.78125 424.269531 397.378906 427.71875 L 379.898438 445.464844 C 387.425781 453.007812 394.945312 460.558594 402.410156 468.15625 C 404.476562 470.261719 406.539062 472.363281 408.574219 474.496094 C 409.292969 475.253906 410.355469 476.195312 410.957031 477.242188 C 411.605469 478.226562 412.003906 479.332031 412.003906 480.515625 L 412.003906 482.011719 L 411.917969 482.355469 C 411.105469 485.652344 409.011719 488.316406 405.351562 488.316406 L 404.199219 488.316406 C 401.808594 488.316406 399.105469 485.609375 397.464844 484.0625 C 394.085938 480.878906 390.820312 477.527344 387.511719 474.273438 L 376.402344 463.367188 L 376.402344 480.796875 C 376.402344 484.8125 373.890625 488.035156 369.738281 488.035156 L 368.597656 488.035156 C 364.441406 488.035156 361.933594 484.8125 361.933594 480.796875 L 361.933594 382.589844 C 361.933594 378.574219 364.445312 375.363281 368.597656 375.363281 L 369.738281 375.363281 C 373.890625 375.363281 376.402344 378.574219 376.402344 382.589844 Z M 556.730469 402.636719 L 558.164062 402.636719 C 562.507812 402.636719 565.402344 405.558594 565.402344 409.871094 C 565.402344 415.863281 559.675781 417.394531 554.722656 417.394531 C 548.222656 417.394531 542.019531 421.328125 537.539062 425.742188 C 531.953125 431.246094 529.511719 438.300781 529.511719 446.054688 L 529.511719 481.078125 C 529.511719 485.097656 527.003906 488.316406 522.84375 488.316406 L 521.703125 488.316406 C 517.546875 488.316406 515.039062 485.097656 515.039062 481.078125 L 515.039062 444.042969 C 515.039062 429.820312 521.964844 418.210938 533.503906 410.066406 C 540.398438 405.203125 548.289062 402.636719 556.730469 402.636719 Z M 453.894531 472.050781 C 459.160156 473.886719 465.164062 473.625 470.566406 472.683594 C 473.328125 471.511719 480.394531 468.429688 482.992188 468.878906 L 483.398438 468.945312 L 483.773438 469.132812 C 485.359375 469.898438 486.875 470.988281 487.683594 472.601562 C 489.578125 476.390625 488.667969 480.191406 484.949219 482.34375 L 483.710938 483.058594 C 469.984375 490.980469 455.390625 489.882812 441.710938 482.480469 C 435.167969 478.945312 430.164062 473.695312 426.472656 467.300781 L 425.609375 465.804688 C 416.800781 450.546875 417.988281 434.492188 427.925781 419.984375 C 431.355469 414.96875 435.839844 411.09375 441.078125 408.0625 L 443.0625 406.921875 C 455.988281 399.460938 469.839844 399.96875 483.113281 406.519531 C 490.253906 410.039062 496.035156 415.289062 500.019531 422.191406 L 500.734375 423.433594 C 503.632812 428.449219 499.882812 432.820312 496.011719 435.808594 C 491.519531 439.273438 486.980469 443.441406 482.675781 447.160156 C 473.074219 455.445312 463.488281 463.753906 453.894531 472.050781 Z M 441.46875 463.320312 C 452.207031 454.113281 462.945312 444.902344 473.652344 435.65625 C 477.3125 432.503906 481.324219 429.226562 484.957031 425.90625 C 482.042969 422.238281 477.179688 419.59375 473.042969 418.015625 C 464.699219 414.835938 456.46875 415.902344 448.816406 420.320312 C 438.796875 426.105469 434.53125 435.316406 434.90625 446.777344 C 435.054688 451.292969 436.269531 455.644531 438.664062 459.484375 C 439.507812 460.839844 440.449219 462.109375 441.46875 463.320312 "/>
<path style=" stroke:none;fill-rule:evenodd;fill:rgb(20.845032%,27.865601%,31.394958%);fill-opacity:1;" d="M 363.386719 173.390625 L 406.082031 173.390625 L 406.082031 217.035156 L 427.671875 217.035156 C 437.640625 217.035156 447.894531 215.261719 457.335938 212.0625 C 461.972656 210.488281 467.179688 208.300781 471.757812 205.546875 C 465.730469 197.675781 462.652344 187.742188 461.746094 177.945312 C 460.515625 164.625 463.203125 147.285156 472.21875 136.859375 L 476.707031 131.671875 L 482.054688 135.96875 C 495.519531 146.785156 506.84375 161.902344 508.839844 179.136719 C 525.054688 174.367188 544.089844 175.492188 558.378906 183.742188 L 564.242188 187.125 L 561.15625 193.148438 C 549.070312 216.734375 523.804688 224.042969 499.101562 222.75 C 462.136719 314.816406 381.65625 358.40625 284.078125 358.40625 C 233.667969 358.40625 187.414062 339.5625 161.078125 294.835938 L 160.644531 294.105469 L 156.808594 286.296875 C 147.90625 266.609375 144.949219 245.039062 146.953125 223.492188 L 147.558594 217.035156 L 184.066406 217.035156 L 184.066406 173.390625 L 226.761719 173.390625 L 226.761719 130.695312 L 312.152344 130.695312 L 312.152344 88 L 363.386719 88 L 363.386719 173.390625 "/>
<path style=" stroke:none;fill-rule:nonzero;fill:rgb(28.015137%,67.982483%,87.263489%);fill-opacity:1;" d="M 501.714844 189.535156 C 504.574219 167.289062 487.925781 149.8125 477.601562 141.515625 C 465.699219 155.273438 463.851562 191.328125 482.519531 206.507812 C 472.101562 215.761719 450.148438 224.148438 427.671875 224.148438 L 154.042969 224.148438 C 151.855469 247.613281 155.976562 269.222656 165.386719 287.71875 L 168.496094 293.410156 C 170.46875 296.757812 172.621094 299.984375 174.949219 303.09375 C 186.199219 303.816406 196.570312 304.066406 206.058594 303.855469 C 206.0625 303.855469 206.0625 303.855469 206.0625 303.855469 C 224.710938 303.441406 239.925781 301.242188 251.460938 297.246094 C 253.175781 296.648438 255.046875 297.558594 255.640625 299.273438 C 256.234375 300.988281 255.324219 302.863281 253.609375 303.457031 C 252.078125 303.988281 250.480469 304.484375 248.828125 304.957031 C 248.824219 304.957031 248.824219 304.957031 248.820312 304.960938 C 239.742188 307.550781 230.007812 309.296875 217.441406 310.070312 C 218.1875 310.082031 216.664062 310.183594 216.660156 310.183594 C 216.234375 310.210938 215.695312 310.269531 215.269531 310.296875 C 210.324219 310.570312 204.988281 310.628906 199.53125 310.628906 C 193.5625 310.628906 187.6875 310.515625 181.117188 310.183594 L 180.949219 310.296875 C 203.746094 335.921875 239.394531 351.289062 284.078125 351.289062 C 378.648438 351.289062 458.863281 309.367188 494.386719 215.25 C 519.585938 217.835938 543.804688 211.410156 554.820312 189.902344 C 537.273438 179.777344 514.707031 183.007812 501.714844 189.535156 "/>
<path style=" stroke:none;fill-rule:nonzero;fill:rgb(33.79364%,74.44458%,93.371582%);fill-opacity:1;" d="M 501.714844 189.535156 C 504.574219 167.289062 487.925781 149.8125 477.601562 141.515625 C 465.699219 155.273438 463.851562 191.328125 482.519531 206.507812 C 472.101562 215.761719 450.148438 224.148438 427.671875 224.148438 L 170.246094 224.148438 C 169.128906 260.085938 182.464844 287.363281 206.058594 303.855469 C 206.0625 303.855469 206.0625 303.855469 206.0625 303.855469 C 224.710938 303.441406 239.925781 301.242188 251.460938 297.246094 C 253.175781 296.648438 255.046875 297.558594 255.640625 299.273438 C 256.234375 300.988281 255.324219 302.863281 253.609375 303.457031 C 252.078125 303.988281 250.480469 304.484375 248.828125 304.957031 C 248.824219 304.957031 248.824219 304.957031 248.820312 304.960938 C 239.742188 307.550781 229.167969 309.519531 216.605469 310.296875 C 216.601562 310.296875 216.300781 310.003906 216.296875 310.003906 C 248.480469 326.515625 295.148438 326.453125 348.652344 305.902344 C 408.648438 282.855469 464.472656 238.945312 503.425781 188.722656 C 502.839844 188.988281 502.265625 189.261719 501.714844 189.535156 "/>
<path style=" stroke:none;fill-rule:nonzero;fill:rgb(22.138977%,54.299927%,74.238586%);fill-opacity:1;" d="M 154.554688 252.660156 C 156.257812 265.230469 159.933594 276.996094 165.386719 287.71875 L 168.496094 293.410156 C 170.46875 296.757812 172.621094 299.984375 174.949219 303.09375 C 186.199219 303.816406 196.574219 304.066406 206.0625 303.855469 C 224.710938 303.441406 239.925781 301.242188 251.460938 297.246094 C 253.175781 296.648438 255.046875 297.558594 255.640625 299.273438 C 256.234375 300.988281 255.324219 302.863281 253.609375 303.457031 C 252.078125 303.988281 250.480469 304.484375 248.828125 304.957031 C 248.824219 304.957031 248.824219 304.957031 248.820312 304.960938 C 239.742188 307.550781 229.226562 309.40625 216.660156 310.183594 C 216.230469 310.210938 215.480469 310.214844 215.042969 310.238281 C 210.101562 310.515625 204.820312 310.6875 199.363281 310.6875 C 193.398438 310.6875 187.296875 310.570312 180.726562 310.238281 C 203.523438 335.863281 239.394531 351.289062 284.078125 351.289062 C 365.039062 351.289062 435.480469 320.558594 476.359375 252.660156 L 154.554688 252.660156 "/>
<path style=" stroke:none;fill-rule:nonzero;fill:rgb(24.873352%,61.190796%,79.458618%);fill-opacity:1;" d="M 172.710938 252.660156 C 177.550781 274.730469 189.179688 292.054688 206.0625 303.855469 C 224.710938 303.441406 239.925781 301.242188 251.460938 297.246094 C 253.175781 296.648438 255.046875 297.558594 255.640625 299.273438 C 256.234375 300.988281 255.324219 302.863281 253.609375 303.457031 C 252.078125 303.988281 250.480469 304.484375 248.828125 304.957031 C 248.824219 304.957031 248.824219 304.957031 248.820312 304.960938 C 239.742188 307.550781 229.003906 309.40625 216.4375 310.183594 C 248.621094 326.691406 295.152344 326.453125 348.652344 305.902344 C 381.019531 293.46875 412.171875 274.953125 440.117188 252.660156 L 172.710938 252.660156 "/>
<path style=" stroke:none;fill-rule:evenodd;fill:rgb(27.401733%,69.036865%,84.210205%);fill-opacity:1;" d="M 191.183594 180.507812 L 228.183594 180.507812 L 228.183594 217.511719 L 191.183594 217.511719 Z M 194.265625 183.589844 L 197.183594 183.589844 L 197.183594 214.429688 L 194.265625 214.429688 Z M 199.753906 183.589844 L 202.789062 183.589844 L 202.789062 214.429688 L 199.753906 214.429688 Z M 205.359375 183.589844 L 208.394531 183.589844 L 208.394531 214.429688 L 205.359375 214.429688 Z M 210.96875 183.589844 L 214.003906 183.589844 L 214.003906 214.429688 L 210.96875 214.429688 Z M 216.574219 183.589844 L 219.609375 183.589844 L 219.609375 214.429688 L 216.574219 214.429688 Z M 222.179688 183.589844 L 225.101562 183.589844 L 225.101562 214.429688 L 222.179688 214.429688 Z M 222.179688 183.589844 "/>
<path style=" stroke:none;fill-rule:evenodd;fill:rgb(27.401733%,69.036865%,84.210205%);fill-opacity:1;" d="M 233.875 137.8125 L 270.882812 137.8125 L 270.882812 174.8125 L 233.875 174.8125 Z M 236.960938 140.894531 L 239.878906 140.894531 L 239.878906 171.730469 L 236.960938 171.730469 Z M 242.449219 140.894531 L 245.484375 140.894531 L 245.484375 171.730469 L 242.449219 171.730469 Z M 248.054688 140.894531 L 251.09375 140.894531 L 251.09375 171.730469 L 248.054688 171.730469 Z M 253.660156 140.894531 L 256.699219 140.894531 L 256.699219 171.730469 L 253.660156 171.730469 Z M 259.269531 140.894531 L 262.308594 140.894531 L 262.308594 171.730469 L 259.269531 171.730469 Z M 264.875 140.894531 L 267.800781 140.894531 L 267.800781 171.730469 L 264.875 171.730469 Z M 264.875 140.894531 "/>
<path style=" stroke:none;fill-rule:evenodd;fill:rgb(34.437561%,78.578186%,94.450378%);fill-opacity:1;" d="M 233.875 180.507812 L 270.882812 180.507812 L 270.882812 217.511719 L 233.875 217.511719 Z M 236.960938 183.589844 L 239.878906 183.589844 L 239.878906 214.429688 L 236.960938 214.429688 Z M 242.449219 183.589844 L 245.484375 183.589844 L 245.484375 214.429688 L 242.449219 214.429688 Z M 248.054688 183.589844 L 251.09375 183.589844 L 251.09375 214.429688 L 248.054688 214.429688 Z M 253.660156 183.589844 L 256.699219 183.589844 L 256.699219 214.429688 L 253.660156 214.429688 Z M 259.269531 183.589844 L 262.308594 183.589844 L 262.308594 214.429688 L 259.269531 214.429688 Z M 264.875 183.589844 L 267.800781 183.589844 L 267.800781 214.429688 L 264.875 214.429688 Z M 264.875 183.589844 "/>
<path style=" stroke:none;fill-rule:evenodd;fill:rgb(27.401733%,69.036865%,84.210205%);fill-opacity:1;" d="M 276.570312 180.507812 L 313.574219 180.507812 L 313.574219 217.511719 L 276.570312 217.511719 Z M 279.65625 183.589844 L 282.574219 183.589844 L 282.574219 214.429688 L 279.65625 214.429688 Z M 285.144531 183.589844 L 288.183594 183.589844 L 288.183594 214.429688 L 285.144531 214.429688 Z M 290.753906 183.589844 L 293.789062 183.589844 L 293.789062 214.429688 L 290.753906 214.429688 Z M 296.359375 183.589844 L 299.394531 183.589844 L 299.394531 214.429688 L 296.359375 214.429688 Z M 301.964844 183.589844 L 305.003906 183.589844 L 305.003906 214.429688 L 301.964844 214.429688 Z M 307.570312 183.589844 L 310.492188 183.589844 L 310.492188 214.429688 L 307.570312 214.429688 Z M 307.570312 183.589844 "/>
<path style=" stroke:none;fill-rule:evenodd;fill:rgb(34.437561%,78.578186%,94.450378%);fill-opacity:1;" d="M 276.570312 137.8125 L 313.574219 137.8125 L 313.574219 174.8125 L 276.570312 174.8125 Z M 279.65625 140.894531 L 282.574219 140.894531 L 282.574219 171.730469 L 279.65625 171.730469 Z M 285.144531 140.894531 L 288.183594 140.894531 L 288.183594 171.730469 L 285.144531 171.730469 Z M 290.753906 140.894531 L 293.789062 140.894531 L 293.789062 171.730469 L 290.753906 171.730469 Z M 296.359375 140.894531 L 299.394531 140.894531 L 299.394531 171.730469 L 296.359375 171.730469 Z M 301.964844 140.894531 L 305.003906 140.894531 L 305.003906 171.730469 L 301.964844 171.730469 Z M 307.570312 140.894531 L 310.492188 140.894531 L 310.492188 171.730469 L 307.570312 171.730469 Z M 307.570312 140.894531 "/>
<path style=" stroke:none;fill-rule:evenodd;fill:rgb(34.437561%,78.578186%,94.450378%);fill-opacity:1;" d="M 319.269531 180.507812 L 356.269531 180.507812 L 356.269531 217.511719 L 319.269531 217.511719 Z M 322.351562 183.589844 L 325.269531 183.589844 L 325.269531 214.429688 L 322.351562 214.429688 Z M 327.84375 183.589844 L 330.878906 183.589844 L 330.878906 214.429688 L 327.84375 214.429688 Z M 333.445312 183.589844 L 336.484375 183.589844 L 336.484375 214.429688 L 333.445312 214.429688 Z M 339.054688 183.589844 L 342.09375 183.589844 L 342.09375 214.429688 L 339.054688 214.429688 Z M 344.660156 183.589844 L 347.699219 183.589844 L 347.699219 214.429688 L 344.660156 214.429688 Z M 350.269531 183.589844 L 353.1875 183.589844 L 353.1875 214.429688 L 350.269531 214.429688 Z M 350.269531 183.589844 "/>
<path style=" stroke:none;fill-rule:evenodd;fill:rgb(27.401733%,69.036865%,84.210205%);fill-opacity:1;" d="M 319.269531 137.8125 L 356.269531 137.8125 L 356.269531 174.8125 L 319.269531 174.8125 Z M 322.351562 140.894531 L 325.269531 140.894531 L 325.269531 171.730469 L 322.351562 171.730469 Z M 327.84375 140.894531 L 330.878906 140.894531 L 330.878906 171.730469 L 327.84375 171.730469 Z M 333.445312 140.894531 L 336.484375 140.894531 L 336.484375 171.730469 L 333.445312 171.730469 Z M 339.054688 140.894531 L 342.09375 140.894531 L 342.09375 171.730469 L 339.054688 171.730469 Z M 344.660156 140.894531 L 347.699219 140.894531 L 347.699219 171.730469 L 344.660156 171.730469 Z M 350.269531 140.894531 L 353.1875 140.894531 L 353.1875 171.730469 L 350.269531 171.730469 Z M 350.269531 140.894531 "/>
<path style=" stroke:none;fill-rule:evenodd;fill:rgb(34.437561%,78.578186%,94.450378%);fill-opacity:1;" d="M 319.269531 95.113281 L 356.269531 95.113281 L 356.269531 132.117188 L 319.269531 132.117188 Z M 322.351562 98.195312 L 325.269531 98.195312 L 325.269531 129.035156 L 322.351562 129.035156 Z M 327.84375 98.195312 L 330.878906 98.195312 L 330.878906 129.035156 L 327.84375 129.035156 Z M 333.445312 98.195312 L 336.484375 98.195312 L 336.484375 129.035156 L 333.445312 129.035156 Z M 339.054688 98.195312 L 342.09375 98.195312 L 342.09375 129.035156 L 339.054688 129.035156 Z M 344.660156 98.195312 L 347.699219 98.195312 L 347.699219 129.035156 L 344.660156 129.035156 Z M 350.269531 98.195312 L 353.1875 98.195312 L 353.1875 129.035156 L 350.269531 129.035156 Z M 350.269531 98.195312 "/>
<path style=" stroke:none;fill-rule:evenodd;fill:rgb(27.401733%,69.036865%,84.210205%);fill-opacity:1;" d="M 361.964844 180.507812 L 398.96875 180.507812 L 398.96875 217.511719 L 361.964844 217.511719 Z M 365.046875 183.589844 L 367.96875 183.589844 L 367.96875 214.429688 L 365.046875 214.429688 Z M 370.535156 183.589844 L 373.570312 183.589844 L 373.570312 214.429688 L 370.535156 214.429688 Z M 376.144531 183.589844 L 379.179688 183.589844 L 379.179688 214.429688 L 376.144531 214.429688 Z M 381.746094 183.589844 L 384.785156 183.589844 L 384.785156 214.429688 L 381.746094 214.429688 Z M 387.355469 183.589844 L 390.394531 183.589844 L 390.394531 214.429688 L 387.355469 214.429688 Z M 392.964844 183.589844 L 395.882812 183.589844 L 395.882812 214.429688 L 392.964844 214.429688 Z M 392.964844 183.589844 "/>
<path style=" stroke:none;fill-rule:evenodd;fill:rgb(84.40094%,94.784546%,95.068359%);fill-opacity:1;" d="M 268.5625 277.503906 C 274.199219 277.503906 278.769531 282.074219 278.769531 287.714844 C 278.769531 293.351562 274.199219 297.921875 268.5625 297.921875 C 262.925781 297.921875 258.355469 293.351562 258.355469 287.714844 C 258.355469 282.074219 262.925781 277.503906 268.5625 277.503906 "/>
<path style=" stroke:none;fill-rule:evenodd;fill:rgb(20.845032%,27.865601%,31.394958%);fill-opacity:1;" d="M 268.5625 280.398438 C 269.496094 280.398438 270.390625 280.574219 271.210938 280.894531 C 270.320312 281.410156 269.71875 282.375 269.71875 283.480469 C 269.71875 285.128906 271.054688 286.460938 272.699219 286.460938 C 273.828125 286.460938 274.8125 285.835938 275.316406 284.90625 C 275.675781 285.769531 275.875 286.71875 275.875 287.714844 C 275.875 291.75 272.601562 295.023438 268.5625 295.023438 C 264.527344 295.023438 261.253906 291.75 261.253906 287.714844 C 261.253906 283.675781 264.527344 280.398438 268.5625 280.398438 "/>
<path style=" stroke:none;fill-rule:evenodd;fill:rgb(20.845032%,27.865601%,31.394958%);fill-opacity:1;" d="M 88 256.351562 L 562.878906 256.351562 C 552.535156 253.726562 530.160156 250.183594 533.851562 236.632812 C 515.050781 258.390625 469.710938 251.894531 458.265625 241.167969 C 445.523438 259.648438 371.339844 252.625 366.164062 238.226562 C 350.191406 256.976562 300.6875 256.976562 284.714844 238.226562 C 279.535156 252.625 205.355469 259.648438 192.609375 241.167969 C 181.167969 251.894531 135.828125 258.390625 117.027344 236.632812 C 120.71875 250.183594 98.34375 253.726562 88 256.351562 "/>
<path style=" stroke:none;fill-rule:nonzero;fill:rgb(75.947571%,88.127136%,88.037109%);fill-opacity:1;" d="M 295.699219 351.066406 C 270.421875 339.070312 256.542969 322.761719 248.820312 304.960938 C 239.433594 307.640625 228.144531 309.351562 215.027344 310.089844 C 210.085938 310.367188 204.890625 310.507812 199.433594 310.507812 C 193.144531 310.507812 186.519531 310.320312 179.5625 309.953125 C 202.746094 333.121094 231.269531 350.964844 284.078125 351.289062 C 287.980469 351.289062 291.851562 351.214844 295.699219 351.066406 "/>
<path style=" stroke:none;fill-rule:nonzero;fill:rgb(84.40094%,94.784546%,95.068359%);fill-opacity:1;" d="M 258.214844 321.386719 C 254.714844 316.640625 251.320312 310.671875 248.828125 304.957031 C 239.4375 307.640625 228.144531 309.351562 215.027344 310.089844 C 224.035156 314.980469 236.925781 319.511719 258.214844 321.386719 "/>
</g>
</svg>
